<?xml version="1.0" encoding="utf-8"?>
<!-- Generator: Adobe Illustrator 23.0.1, SVG Export Plug-In . SVG Version: 6.00 Build 0)  -->
<svg version="1.1" id="Слой_1" xmlns="http://www.w3.org/2000/svg" xmlns:xlink="http://www.w3.org/1999/xlink" x="0px" y="0px"
	 width="771.579px" height="228.004px" viewBox="0 0 771.579 228.004" enable-background="new 0 0 771.579 228.004"
	 xml:space="preserve">
<g id="XMLID_240_">
	<circle id="XMLID_241_" fill="#ECB52B" cx="73.64" cy="73.64" r="73.64"/>
</g>
<g id="XMLID_228_">
	<path id="XMLID_221_" fill="#3C4BBD" d="M147.997,217.042c1.518-0.295,3.71-0.506,5.101-0.633
		c0.084-1.349,0.042-4.216,0.211-17.454c-0.759,0.38-2.277,0.801-3.415,1.054c-1.349-0.969-2.234-3.625-1.981-4.511
		c0.674-1.012,7.167-4.385,8.053-4.638c1.223-0.379,2.782,0.211,3.625,1.855c-0.379,3.583-0.464,9.907-0.464,14.672
		c0,3.541,0,5.986,0.084,8.769c1.476,0,2.698,0.042,3.457,0.042c0.843,0.717,1.307,1.603,1.307,2.53c0,1.012-0.59,2.234-1.981,3.246
		c-1.476-0.126-2.994-0.169-4.596-0.169c-2.698,0-5.691,0.127-8.095,0.211c-1.265-0.042-2.023-1.391-2.023-2.782
		C147.28,218.601,147.491,217.884,147.997,217.042z"/>
	<path id="XMLID_200_" fill="#3C4BBD" d="M167.94,217.042c1.518-0.295,3.71-0.506,5.101-0.633c0.084-1.349,0.042-4.216,0.211-17.454
		c-0.759,0.38-2.277,0.801-3.415,1.054c-1.349-0.969-2.234-3.625-1.981-4.511c0.674-1.012,7.167-4.385,8.053-4.638
		c1.223-0.379,2.782,0.211,3.625,1.855c-0.379,3.583-0.464,9.907-0.464,14.672c0,3.541,0,5.986,0.084,8.769
		c1.476,0,2.698,0.042,3.457,0.042c0.843,0.717,1.307,1.603,1.307,2.53c0,1.012-0.59,2.234-1.981,3.246
		c-1.476-0.126-2.994-0.169-4.596-0.169c-2.698,0-5.691,0.127-8.095,0.211c-1.265-0.042-2.023-1.391-2.023-2.782
		C167.224,218.601,167.434,217.884,167.94,217.042z"/>
	<path id="XMLID_197_" fill="#3C4BBD" d="M202.387,212.235c2.572-5.691,2.951-11.088,2.698-15.684
		c-1.981-0.168-3.457-1.686-3.457-3.119c0-0.675,0.379-1.771,0.759-2.572c4.638-0.59,14.292-1.307,18.466-1.391
		c1.096,0,2.487,0.969,2.951,2.023c0.843,7.209,0.295,20.784,0.632,28.626c-0.464,1.308-2.108,2.15-3.542,2.15
		c-1.391,0-2.867-0.632-3.289-2.023c0-4.132,0.422-18.93,0.253-24.537c-2.403,0.042-5.143,0.126-6.661,0.295
		c0,3.752-0.084,11.51-2.487,17.792c-1.476,3.794-4.427,8.263-6.619,8.938c-2.994-0.379-3.963-1.729-4.047-4.849
		C199.015,217.042,201.291,214.68,202.387,212.235z"/>
	<path id="XMLID_63_" fill="#3C4BBD" d="M231.017,209.284c-0.633-0.59-0.886-1.434-0.886-2.318c0-0.928,0.379-1.939,0.928-2.529
		c0.168-3.795,0.211-5.354,0.211-6.451c-1.096-0.928-1.602-2.318-1.602-3.963c1.307-1.096,2.108-1.518,3.752-2.318
		c4.68-0.253,17.201-1.181,19.225-0.717c0.59,0.843,0.843,1.771,0.843,2.529c0,1.307-0.675,2.656-1.855,3.078
		c-3.921,0.759-9.95,0.759-13.913,1.265c-0.042,1.644-0.084,3.625,0,5.27c2.825-0.126,8.727-0.59,12.943-1.096
		c1.138,0.717,1.56,1.854,1.56,2.824c0,1.35-0.674,2.825-1.897,3.373c-2.698,0.337-6.282,0.59-9.233,0.759
		c-1.687,0.127-2.572,0.127-3.668,0.211c-0.126,1.813-0.211,4.174-0.211,7.209c3.879-0.211,9.444-0.97,14.082-2.276
		c1.771,0.127,2.656,1.603,2.656,3.331c0,0.506-0.126,1.265-0.506,2.192c-5.48,2.571-13.027,2.951-19.141,3.161
		c-1.729-0.674-2.361-1.223-3.625-2.993L231.017,209.284z"/>
	<path id="XMLID_61_" fill="#3C4BBD" d="M266.897,196.931c-2.867,0.422-5.228,0.886-8.264,0.97
		c-1.054-1.687-1.518-3.668-0.927-5.186c3.499-1.476,19.056-2.993,23.356-2.993c1.223,1.223,1.181,3.499,0.126,5.144
		c-1.813,0.674-4.216,0.885-8.01,1.307l0.253,24.368c-1.813,1.687-4.047,2.319-5.987,1.054
		C266.854,218.475,266.728,203.171,266.897,196.931z"/>
	<path id="XMLID_57_" fill="#3C4BBD" d="M300.249,215.65c2.867-3.668,3.752-14.334,4.047-18.803
		c-0.38,0.042-1.518,0.126-1.729,0.126c-1.307-0.928-1.855-2.234-1.855-3.415c0-0.843,0.295-1.771,1.012-2.571
		c4.174-0.928,13.786-1.476,18.424-1.645c1.054,0.38,1.855,1.012,2.276,2.108c0.422,3.921,0.422,11.046,0.337,22.893
		c1.56-0.253,3.289,0.084,5.017,0.759c0,2.234-0.337,7.167-0.211,9.95c-1.307,2.192-2.993,2.107-5.27,2.107
		c-1.265-1.349-1.349-4.764-1.18-6.408c-3.963,0.211-8.812,0.464-18.255,0.97c0.084,1.139,0.295,2.825,0.337,3.921
		c-0.717,1.518-4.09,2.361-5.903,2.361c-0.969-4.217-1.307-7.885-0.548-11.721C297.593,215.819,298.9,215.735,300.249,215.65z
		 M316.227,214.807c0.295-4.469,0.464-14.461,0.084-19.099c-2.065,0.084-5.101,0.211-5.986,0.379
		c-0.337,9.191-1.434,15.642-2.951,19.31L316.227,214.807z"/>
	<path id="XMLID_54_" fill="#3C4BBD" d="M332.167,207.85c0-3.836,0.042-6.703,0.084-8.432c-1.096-0.886-1.476-2.065-0.801-3.879
		c3.71-4.638,9.612-4.933,14.039-4.933c4.975,0,11.468,2.572,11.468,7.505c0,8.348-12.648,12.732-18.635,13.364
		c0.042,3.457,0.253,6.619,0.295,10.203c-1.349,0.928-2.698,1.265-3.625,1.265c-0.885,0-1.729-0.253-2.445-1.096
		C332.251,217.969,332.167,212.404,332.167,207.85z M350.338,198.576c0-1.813-3.204-2.361-5.818-2.361
		c-1.813,0-4.596,0.717-5.86,1.307c-0.169,2.066-0.253,5.649-0.337,8.138C341.611,205.237,350.338,203.087,350.338,198.576z"/>
	<path id="XMLID_52_" fill="#3C4BBD" d="M369.481,211.603c-3.204-5.396-10.287-15.769-10.835-19.689
		c0.548-1.602,3.963-2.908,5.734-1.433c2.487,4.3,5.607,10.877,8.306,15.178c2.572-4.554,5.312-11.468,7.968-15.811
		c1.56-0.337,4.089,0.211,5.228,2.319c-3.036,7.546-10.667,23.104-15.557,30.607c-2.909,0.675-4.807-0.042-5.945-2.656
		L369.481,211.603z"/>
	<path id="XMLID_50_" fill="#3C4BBD" d="M397.942,204.014c-2.53-2.867-8.095-7.884-9.781-10.414
		c0.084-2.445,3.879-4.258,4.933-3.499l10.962,11.51l0.379-9.781c0.548-1.054,1.939-2.192,3.415-2.192
		c0.759,0,1.603,0.295,2.529,1.139c0.38,1.602,0.38,4.511,0.38,10.919c2.276-2.065,5.522-5.522,11.215-11.51
		c1.434-0.548,4.722-0.379,5.228,2.741c-1.687,3.71-6.282,7.546-9.57,10.666c2.487,3.12,7.926,11.215,9.992,15.347
		c0,2.571-2.614,3.541-4.343,3.836c-3.921-4.005-7.758-11.763-10.371-14.925c-0.844,0.633-1.645,1.392-2.066,1.771
		c0.338,2.993,0.675,8.01,0.717,10.413c-0.632,1.392-2.15,2.066-3.499,2.066c-1.181,0-2.445-0.464-3.078-1.729
		c-0.379-3.289-0.548-7.505-0.59-10.667l-1.897-1.476c-2.656,3.71-7.42,11.173-10.118,14.63c-2.529,0-4.301-2.15-4.596-3.921
		C390.437,213.796,395.497,207.092,397.942,204.014z"/>
	<path id="XMLID_48_" fill="#3C4BBD" d="M432.138,209.284c-0.633-0.59-0.886-1.434-0.886-2.318c0-0.928,0.38-1.939,0.928-2.529
		c0.169-3.795,0.211-5.354,0.211-6.451c-1.097-0.928-1.603-2.318-1.603-3.963c1.308-1.096,2.108-1.518,3.753-2.318
		c4.68-0.253,17.201-1.181,19.225-0.717c0.59,0.843,0.843,1.771,0.843,2.529c0,1.307-0.674,2.656-1.854,3.078
		c-3.921,0.759-9.95,0.759-13.913,1.265c-0.042,1.644-0.084,3.625,0,5.27c2.825-0.126,8.728-0.59,12.943-1.096
		c1.139,0.717,1.56,1.854,1.56,2.824c0,1.35-0.675,2.825-1.897,3.373c-2.697,0.337-6.281,0.59-9.232,0.759
		c-1.687,0.127-2.572,0.127-3.668,0.211c-0.127,1.813-0.211,4.174-0.211,7.209c3.879-0.211,9.444-0.97,14.081-2.276
		c1.771,0.127,2.656,1.603,2.656,3.331c0,0.506-0.126,1.265-0.506,2.192c-5.48,2.571-13.027,2.951-19.141,3.161
		c-1.729-0.674-2.36-1.223-3.626-2.993L432.138,209.284z"/>
	<path id="XMLID_46_" fill="#3C4BBD" d="M462.706,212.235c2.572-5.691,2.951-11.088,2.698-15.684
		c-1.981-0.168-3.457-1.686-3.457-3.119c0-0.675,0.38-1.771,0.759-2.572c4.638-0.59,14.292-1.307,18.466-1.391
		c1.097,0,2.488,0.969,2.951,2.023c0.844,7.209,0.296,20.784,0.633,28.626c-0.464,1.308-2.108,2.15-3.541,2.15
		c-1.392,0-2.867-0.632-3.289-2.023c0-4.132,0.422-18.93,0.253-24.537c-2.403,0.042-5.144,0.126-6.661,0.295
		c0,3.752-0.084,11.51-2.487,17.792c-1.476,3.794-4.427,8.263-6.619,8.938c-2.993-0.379-3.963-1.729-4.048-4.849
		C459.332,217.042,461.61,214.68,462.706,212.235z"/>
	<path id="XMLID_43_" fill="#3C4BBD" d="M490.577,193.052c0.464-1.518,1.854-2.234,3.288-2.234c1.097,0,2.276,0.548,2.951,1.518
		c0.295,3.12,0.464,7.42,0.464,11.805c0.675,0,3.204,0,4.343-0.084c1.181-8.643,8.179-13.449,15.515-13.449
		c8.812,0,14.967,6.113,14.967,15.389c0,11.341-8.854,16.442-16.653,16.442c-6.956,0-12.521-4.722-13.744-12.353h-4.427
		c0,3.541,0,7.082,0.084,9.738c-0.21,1.434-1.644,2.277-3.204,2.277c-1.265,0-2.698-0.591-3.415-1.982L490.577,193.052z
		 M515.704,216.156c3.584,0,9.95-1.854,9.95-10.16c0-6.155-4.006-9.317-8.306-9.317c-4.933,0-9.612,3.204-9.612,10.245
		C507.736,213.079,511.066,216.156,515.704,216.156z"/>
	<path id="XMLID_40_" fill="#3C4BBD" d="M537.714,198.027c-0.801-0.759-1.223-1.981-1.223-2.908c0-0.928,0.296-1.813,1.097-2.403
		c3.33-1.603,15.979-3.837,19.563-3.373c0.969,0.59,1.518,1.687,1.518,2.698c0,1.35-0.844,2.867-2.15,3.373
		c-2.403,0-9.359,0.59-12.311,1.391c-0.042,2.108-0.295,3.458-0.211,5.607c3.162-0.885,5.944-1.307,8.221-1.307
		c5.229,0,10.245,2.529,10.245,8.306c0,11.172-12.774,12.943-20.785,13.069c-1.56-0.464-3.119-1.476-3.583-3.499
		C537.588,216.156,537.841,201.948,537.714,198.027z M556.096,209.706c0-1.981-2.065-2.74-4.933-2.74
		c-2.993,0-6.324,0.801-7.125,1.223l0.211,8.179C549.224,216.873,556.096,214.807,556.096,209.706z"/>
	<path id="XMLID_35_" fill="#3C4BBD" d="M568.03,210.296c-1.223-1.18-1.139-3.836,0-5.101c0-2.024-0.464-9.233-0.337-12.059
		c0.548-1.854,3.415-3.077,5.944-2.318c0.886,1.603,0.97,6.999,1.096,13.027c2.445-0.126,6.156-0.422,11.342-0.97
		c-0.085-2.656-0.127-5.228-0.127-10.371c0.506-1.476,1.897-2.192,3.331-2.192c1.096,0,2.276,0.548,2.909,1.518
		c0.506,4.469,0.548,11.384,0.548,17.834c0,3.668,0,7.336,0.084,10.16c-0.253,1.434-1.687,2.277-3.288,2.277
		c-1.265,0-2.698-0.591-3.331-1.982c0.042-3.372,0.085-7.968,0.085-11.467c-3.626,0.379-10.498,1.096-11.806,1.434
		c-0.168,1.012,0.127,7.715,0.127,9.991c0,1.645-1.687,2.487-3.331,2.487c-1.265,0-2.529-0.463-2.993-1.518L568.03,210.296z"/>
	<path id="XMLID_31_" fill="#3C4BBD" d="M600.117,191.198c1.012-1.097,1.981-1.434,2.824-1.434c1.307,0,2.74,0.253,3.542,1.054
		l0.042,11.636c3.204-0.843,5.902-1.307,8.221-1.307c5.144,0,10.203,2.529,10.203,8.348c0,11.131-12.732,12.859-20.743,12.985
		c-1.56-0.464-3.077-1.434-3.541-3.33C600.074,214.512,600.538,196.804,600.117,191.198z M618.54,209.748
		c0-1.981-2.024-2.698-4.849-2.698c-2.993,0-6.366,0.759-7.083,1.223l0.169,8.137C611.752,216.789,618.54,214.891,618.54,209.748z
		 M627.984,192.926c0.464-1.476,1.897-2.235,3.331-2.235c1.096,0,2.276,0.591,2.909,1.561c0.759,6.914,0.421,19.688,0.632,27.572
		c-0.295,1.434-1.729,2.277-3.246,2.277c-1.307,0-2.74-0.549-3.415-1.982L627.984,192.926z"/>
	<path id="XMLID_29_" fill="#3C4BBD" d="M647.507,206.038l-7.631-12.185c0.295-0.801,2.572-4.174,5.018-2.951
		c1.938,2.15,4.806,7.252,6.619,10.034c2.445-3.457,4.89-7.251,7.42-10.118c1.729-0.211,3.879,0.295,5.27,1.813
		c-1.896,4.385-5.902,9.022-8.769,13.028l9.78,13.322c0.169,1.096-1.602,3.626-4.3,3.836c-3.879-3.963-6.83-8.558-9.317-12.016
		l-8.686,11.637c-2.276,0.295-4.68-1.687-4.68-3.457L647.507,206.038z"/>
	<path id="XMLID_27_" fill="#3C4BBD" d="M681.029,192.842c0.084-1.518,2.192-2.698,4.089-2.698c0.886,0,1.897,0.295,2.867,1.097
		c0.042,2.698-0.38,20.7,0.042,25.001c3.12-0.085,7.125-0.38,10.414-1.097l-0.127-23.989c0.717-1.391,2.066-1.644,3.373-1.644
		c1.054,0,2.192,0.168,2.993,1.138c0.38,1.939,0.422,7.252,0.422,23.82c1.223,0,2.445-0.126,3.499,0
		c0.801,0.76,1.054,1.055,1.476,2.192l-0.337,8.812c-1.308,1.476-3.584,1.729-5.313,1.729c-1.012-1.56-1.012-4.258-1.012-6.239
		c-5.228,0.59-14.503,1.687-19.015,1.854c-1.349-0.632-2.234-1.096-2.866-2.951C681.113,215.777,681.071,208.82,681.029,192.842z"/>
	<path id="XMLID_25_" fill="#3C4BBD" d="M714.591,209.284c-0.633-0.59-0.886-1.434-0.886-2.318c0-0.928,0.38-1.939,0.928-2.529
		c0.169-3.795,0.211-5.354,0.211-6.451c-1.097-0.928-1.603-2.318-1.603-3.963c1.308-1.096,2.108-1.518,3.753-2.318
		c4.68-0.253,17.201-1.181,19.225-0.717c0.59,0.843,0.843,1.771,0.843,2.529c0,1.307-0.674,2.656-1.854,3.078
		c-3.921,0.759-9.95,0.759-13.913,1.265c-0.042,1.644-0.084,3.625,0,5.27c2.825-0.126,8.728-0.59,12.943-1.096
		c1.139,0.717,1.56,1.854,1.56,2.824c0,1.35-0.675,2.825-1.897,3.373c-2.697,0.337-6.281,0.59-9.232,0.759
		c-1.687,0.127-2.572,0.127-3.668,0.211c-0.127,1.813-0.211,4.174-0.211,7.209c3.879-0.211,9.444-0.97,14.081-2.276
		c1.771,0.127,2.656,1.603,2.656,3.331c0,0.506-0.126,1.265-0.506,2.192c-5.48,2.571-13.027,2.951-19.141,3.161
		c-1.729-0.674-2.36-1.223-3.626-2.993L714.591,209.284z"/>
	<path id="XMLID_23_" fill="#3C4BBD" d="M743.684,210.296c-1.223-1.18-1.139-3.836,0-5.101c0-2.024-0.464-9.233-0.337-12.059
		c0.548-1.854,3.415-3.077,5.944-2.318c0.886,1.603,0.97,6.999,1.096,13.027c2.445-0.126,6.156-0.422,11.342-0.97
		c-0.085-2.656-0.127-5.228-0.127-10.371c0.506-1.476,1.897-2.192,3.331-2.192c1.096,0,2.276,0.548,2.909,1.518
		c0.506,4.469,0.548,11.384,0.548,17.834c0,3.668,0,7.336,0.084,10.16c-0.253,1.434-1.687,2.277-3.288,2.277
		c-1.265,0-2.698-0.591-3.331-1.982c0.042-3.372,0.085-7.968,0.085-11.467c-3.626,0.379-10.498,1.096-11.806,1.434
		c-0.168,1.012,0.127,7.715,0.127,9.991c0,1.645-1.687,2.487-3.331,2.487c-1.265,0-2.529-0.463-2.993-1.518L743.684,210.296z"/>
</g>
<g id="XMLID_223_">
	<path id="XMLID_22_" fill="#ECB52B" d="M19.139,177.385l18.72,13.17c229.184-48.972,475.047-53.297,733.72-23.33l-12.538-8.5
		C496.461,123.311,251.848,134.807,19.139,177.385z"/>
</g>
<g id="XMLID_219_">
	<path id="XMLID_21_" fill="#3C4BBD" d="M234.139,94.996c0,2.761-2.239,5-5,5h-62.5c-2.761,0-5-2.239-5-5V51.775h-20v45.221
		c0,9.389,7.611,17,17,17h78.5c9.389,0,17-7.611,17-17V51.775h-20V94.996z"/>
</g>
<g id="XMLID_218_">
	<path id="XMLID_20_" fill="#3C4BBD" d="M751.578,51.775v45.221c0,1.657-1.343,3-3,3h-66.5c-1.657,0-3-1.343-3-3V51.775h-20v45.221
		c0,9.389,7.611,17,17,17h78.5c9.389,0,17-7.611,17-17V51.775H751.578z"/>
</g>
<g id="XMLID_217_">
	<path id="XMLID_19_" fill="#3C4BBD" d="M356.639,59.753c0,8.723-6.922,15.812-15.571,16.118h-56.929V51.775h-20v62.221h20V89.898
		l2.11-0.001V89.9h54.819c8.649,0.306,15.571,7.395,15.571,16.118v7.978h20v-8.767c0-8.95-4.01-16.959-10.325-22.343
		c6.315-5.385,10.325-13.394,10.325-22.343v-8.767h-20V59.753z"/>
</g>
<g id="XMLID_214_">
	<path id="XMLID_17_" fill="#3C4BBD" d="M632.079,51.775h-95.5v62.221h20V90.035h56.94c8.644,0.312,15.56,7.398,15.56,16.118v7.843
		h20v-8.633c0-7.137-2.548-13.677-6.782-18.765c4.112-3.103,6.782-8.015,6.782-13.564v-4.26
		C649.079,59.386,641.467,51.775,632.079,51.775z M629.079,70.905c0,2.743-2.223,4.966-4.966,4.966h-67.534V65.775h67.534
		c2.743,0,4.966,2.223,4.966,4.966V70.905z"/>
</g>
<g id="XMLID_213_">
	<rect id="XMLID_16_" x="509.139" y="100.246" fill="#3C4BBD" width="17.44" height="13.75"/>
</g>
<g id="XMLID_212_">
	<path id="XMLID_15_" fill="#3C4BBD" d="M411.639,65.775h83.63l-0.026-14h-91.604c-9.389,0-17,7.611-17,17v28.221
		c0,9.389,7.611,17,17,17h91.63v-14h-83.63c-2.761,0-5-2.239-5-5v-5.125h88.63v-14h-88.63v-5.096
		C406.639,68.014,408.877,65.775,411.639,65.775z"/>
</g>
<g id="XMLID_226_">
	<path id="XMLID_14_" fill="#3C4BBD" d="M74.037,134.234c-28.063,0-46.676-13.817-51.481-38.032
		c-5.003-2.259-8.271-8.146-8.271-13.221c0-5.077,3.269-10.966,8.275-13.223c3.505-17.319,13.991-24.731,24.492-30.82l4.266,7.356
		C39.469,53.166,32.64,59.573,30.491,73.734l-0.494,3.26l-3.28,0.333c-1.835,0.186-3.928,3.199-3.928,5.655s2.093,5.47,3.928,5.656
		l3.28,0.333l0.495,3.259c4.202,27.688,26,33.5,43.545,33.5c23.901,0,40.182-12.708,43.549-33.995l0.514-3.249l3.273-0.319
		c1.901-0.185,3.911-2.851,3.911-5.186s-2.01-5-3.911-5.186l-3.273-0.319l-0.514-3.249c-2.622-16.573-12.575-27.09-30.396-32.095
		l-0.105,0.085c-10.8,8.457-21.596,7.296-28.097,3.389c-6.876-4.131-10.441-11.749-9.082-19.405
		c1.555-8.761,9.133-15.077,18.428-15.359c6.534-0.194,12.076,3.383,14.126,9.126c1.83,5.124,0.261,10.552-3.998,13.828
		c-3.023,2.327-7.488,3.078-11.11,1.867c-3.115-1.04-5.241-3.627-5.204-6.182c0.05-3.424,3.074-6.259,6.444-5.852
		c-1.407,2.333,0.655,3.696,1.453,3.968c0.797,0.273,2.538-0.009,3.232-0.542c1.9-1.461,1.454-3.443,1.174-4.227
		c-0.626-1.753-2.494-3.605-5.859-3.487c-5.229,0.159-9.47,3.591-10.313,8.345c-0.749,4.221,1.201,8.294,5.088,10.63
		c5.261,3.161,12.132,2.136,18.4-2.738l3.241-2.786l2.131,0.53c21.182,5.264,34.384,17.973,38.344,36.841
		c5.079,2.14,8.305,7.783,8.305,12.815c0,5.032-3.226,10.674-8.305,12.815C120.509,119.586,101.043,134.234,74.037,134.234z"/>
</g>
<g id="XMLID_230_">
	<circle id="XMLID_13_" fill="#3C4BBD" cx="54.759" cy="87.315" r="9.111"/>
</g>
<g id="XMLID_233_">
	<circle id="XMLID_12_" fill="#3C4BBD" cx="92.248" cy="87.315" r="9.111"/>
</g>
<g id="XMLID_239_">
	<path id="XMLID_9_" fill="#3C4BBD" d="M74.037,134.543c-12.597,0-22.464-6.91-22.464-15.732c0-8.821,9.867-15.731,22.464-15.731
		c12.596,0,22.463,6.91,22.463,15.731C96.5,127.633,86.633,134.543,74.037,134.543z M74.037,111.583
		c-7.99,0-13.96,3.816-13.96,7.228c0,3.412,5.97,7.228,13.96,7.228s13.959-3.816,13.959-7.228
		C87.996,115.399,82.027,111.583,74.037,111.583z"/>
</g>
<g id="XMLID_237_">
	<circle id="XMLID_6_" fill="#ECB52B" cx="74.037" cy="129.982" r="17.298"/>
	<path id="XMLID_1_" fill="#3C4BBD" d="M74.037,151.532c-11.883,0-21.55-9.667-21.55-21.55c0-11.883,9.667-21.55,21.55-21.55
		s21.55,9.667,21.55,21.55C95.587,141.865,85.92,151.532,74.037,151.532z M74.037,116.935c-7.194,0-13.046,5.853-13.046,13.046
		s5.853,13.046,13.046,13.046s13.046-5.853,13.046-13.046S81.231,116.935,74.037,116.935z"/>
</g>
</svg>
